# Exported from Wings 3D 2.2.6.1
mtllib S1TL3.mtl
o S1TL3
#96 vertices, 96 faces
v 0.62500000 1.25000000 0.0000000e+0
v 0.60370364 1.25000000 0.16176190
v 0.54126588 1.25000000 0.31250000
v 0.44194174 1.25000000 0.44194174
v 0.31250000 1.25000000 0.54126588
v 0.16176190 1.25000000 0.60370364
v 3.8270212e-17 1.25000000 0.62500000
v -0.16176190 1.25000000 0.60370364
v -0.31250000 1.25000000 0.54126588
v -0.44194174 1.25000000 0.44194174
v -0.54126588 1.25000000 0.31250000
v -0.60370364 1.25000000 0.16176190
v -0.62500000 1.25000000 7.6540425e-17
v -0.60370364 1.25000000 -0.16176190
v -0.54126588 1.25000000 -0.31250000
v -0.44194174 1.25000000 -0.44194174
v -0.31250000 1.25000000 -0.54126588
v -0.16176190 1.25000000 -0.60370364
v -1.1481064e-16 1.25000000 -0.62500000
v 0.16176190 1.25000000 -0.60370364
v 0.31250000 1.25000000 -0.54126588
v 0.44194174 1.25000000 -0.44194174
v 0.54126588 1.25000000 -0.31250000
v 0.60370364 1.25000000 -0.16176190
v 0.62500000 -1.25000000 0.0000000e+0
v 0.60370364 -1.25000000 0.16176190
v 0.54126588 -1.25000000 0.31250000
v 0.44194174 -1.25000000 0.44194174
v 0.31250000 -1.25000000 0.54126588
v 0.16176190 -1.25000000 0.60370364
v 3.8270212e-17 -1.25000000 0.62500000
v -0.16176190 -1.25000000 0.60370364
v -0.31250000 -1.25000000 0.54126588
v -0.44194174 -1.25000000 0.44194174
v -0.54126588 -1.25000000 0.31250000
v -0.60370364 -1.25000000 0.16176190
v -0.62500000 -1.25000000 7.6540425e-17
v -0.60370364 -1.25000000 -0.16176190
v -0.54126588 -1.25000000 -0.31250000
v -0.44194174 -1.25000000 -0.44194174
v -0.31250000 -1.25000000 -0.54126588
v -0.16176190 -1.25000000 -0.60370364
v -1.1481064e-16 -1.25000000 -0.62500000
v 0.16176190 -1.25000000 -0.60370364
v 0.31250000 -1.25000000 -0.54126588
v 0.44194174 -1.25000000 -0.44194174
v 0.54126588 -1.25000000 -0.31250000
v 0.60370364 -1.25000000 -0.16176190
v 0.57500000 1.25000000 0.0000000e+0
v 0.55540735 1.25000000 0.14882095
v 0.49796461 1.25000000 0.28750000
v 0.40658640 1.25000000 0.40658640
v 0.28750000 1.25000000 0.49796461
v 0.14882095 1.25000000 0.55540735
v 3.5208595e-17 1.25000000 0.57500000
v -0.14882095 1.25000000 0.55540735
v -0.28750000 1.25000000 0.49796461
v -0.40658640 1.25000000 0.40658640
v -0.49796461 1.25000000 0.28750000
v -0.55540735 1.25000000 0.14882095
v -0.57500000 1.25000000 7.0417191e-17
v -0.55540735 1.25000000 -0.14882095
v -0.49796461 1.25000000 -0.28750000
v -0.40658640 1.25000000 -0.40658640
v -0.28750000 1.25000000 -0.49796461
v -0.14882095 1.25000000 -0.55540735
v -1.0562579e-16 1.25000000 -0.57500000
v 0.14882095 1.25000000 -0.55540735
v 0.28750000 1.25000000 -0.49796461
v 0.40658640 1.25000000 -0.40658640
v 0.49796461 1.25000000 -0.28750000
v 0.55540735 1.25000000 -0.14882095
v 0.57500000 -1.25000000 0.0000000e+0
v 0.55540735 -1.25000000 0.14882095
v 0.49796461 -1.25000000 0.28750000
v 0.40658640 -1.25000000 0.40658640
v 0.28750000 -1.25000000 0.49796461
v 0.14882095 -1.25000000 0.55540735
v 3.5208595e-17 -1.25000000 0.57500000
v -0.14882095 -1.25000000 0.55540735
v -0.28750000 -1.25000000 0.49796461
v -0.40658640 -1.25000000 0.40658640
v -0.49796461 -1.25000000 0.28750000
v -0.55540735 -1.25000000 0.14882095
v -0.57500000 -1.25000000 7.0417191e-17
v -0.55540735 -1.25000000 -0.14882095
v -0.49796461 -1.25000000 -0.28750000
v -0.40658640 -1.25000000 -0.40658640
v -0.28750000 -1.25000000 -0.49796461
v -0.14882095 -1.25000000 -0.55540735
v -1.0562579e-16 -1.25000000 -0.57500000
v 0.14882095 -1.25000000 -0.55540735
v 0.28750000 -1.25000000 -0.49796461
v 0.40658640 -1.25000000 -0.40658640
v 0.49796461 -1.25000000 -0.28750000
v 0.55540735 -1.25000000 -0.14882095
vt 3.5315803e-2 2.5000000e-2
vt 3.5315803e-2 0.97500000
vt 3.5315803e-2 2.5000000e-2
vt 3.5315803e-2 2.5000000e-2
vt 3.5315803e-2 0.97500000
vt 3.5315803e-2 2.5000000e-2
vt 3.5315803e-2 2.5000000e-2
vt 3.5315803e-2 0.97500000
vt 3.5315803e-2 2.5000000e-2
vt 3.5315803e-2 2.5000000e-2
vt 3.5315803e-2 0.97500000
vt 9.7315745e-2 2.5000000e-2
vt 9.7315745e-2 2.5000000e-2
vt 9.7315745e-2 0.97500000
vt 9.7315745e-2 2.5000000e-2
vt 9.7315745e-2 2.5000000e-2
vt 9.7315745e-2 0.97500000
vt 9.7315745e-2 2.5000000e-2
vt 9.7315745e-2 2.5000000e-2
vt 9.7315745e-2 0.97500000
vt 9.7315745e-2 2.5000000e-2
vt 9.7315745e-2 0.97500000
vt 0.17091055 0.25365494
vt 0.17091055 0.25365494
vt 0.17091055 0.25365494
vt 0.17091055 0.25365494
vt 0.17091055 0.25365494
vt 0.17091055 0.25365494
vt 0.17091055 0.25365494
vt 0.17091055 0.25365494
vt 0.17091055 0.25365494
vt 0.17091055 0.25365494
vt 0.17091055 0.25365494
vt 0.17091055 0.25365494
vt 0.17091055 0.25365494
vt 0.17091055 0.25365494
vt 0.17091055 0.25365494
vt 0.17091055 0.25365494
vt 0.17091055 0.25365494
vt 0.17091055 0.25365494
vt 0.17091055 0.25365494
vt 0.17091055 0.25365494
vt 0.17091055 0.25365494
vt 0.17091055 0.25365494
vt 0.17091055 0.25365494
vt 0.17091055 0.25365494
vt 0.17091055 0.25365494
vt 0.17091055 0.25365494
vt 0.17091055 0.25365494
vt 0.17091055 0.25365494
vt 0.17091055 0.25365494
vt 0.17091055 0.25365494
vt 0.17091055 0.25365494
vt 0.17091055 0.25365494
vt 0.17091055 0.25365494
vt 0.17091055 0.25365494
vt 0.17091055 0.25365494
vt 0.17091055 0.25365494
vt 0.17091055 0.25365494
vt 0.17091055 0.25365494
vt 0.17139820 0.70397004
vt 0.17139820 0.70397004
vt 0.17139820 0.70397004
vt 0.17139820 0.70397004
vt 0.17139820 0.70397004
vt 0.17139820 0.70397004
vt 0.17139820 0.70397004
vt 0.17139820 0.70397004
vt 0.17139820 0.70397004
vt 0.17139820 0.70397004
vt 0.17139820 0.70397004
vt 0.17139820 0.70397004
vt 0.17139820 0.70397004
vt 0.17139820 0.70397004
vt 0.17139820 0.70397004
vt 0.17139820 0.70397004
vt 0.17139820 0.70397004
vt 0.17139820 0.70397004
vt 0.17139820 0.70397004
vt 0.17139820 0.70397004
vt 0.17139820 0.70397004
vt 0.17139820 0.70397004
vt 0.17139820 0.70397004
vt 0.17139820 0.70397004
vt 0.17139820 0.70397004
vt 0.17139820 0.70397004
vt 0.17139820 0.70397004
vt 0.17139820 0.70397004
vt 0.17139820 0.70397004
vt 0.17139820 0.70397004
vt 0.17139820 0.70397004
vt 0.17139820 0.70397004
vt 0.17139820 0.70397004
vt 0.17139820 0.70397004
vt 0.17139820 0.70397004
vt 0.17139820 0.70397004
vt 0.31960599 0.23391498
vt 0.31960599 0.23391498
vt 0.31960599 0.23391498
vt 0.31960599 0.23391498
vt 0.31960599 0.23391498
vt 0.31960599 0.23391498
vt 0.31960599 0.23391498
vt 0.31960599 0.23391498
vt 0.31960599 0.23391498
vt 0.31960599 0.23391498
vt 0.31960599 0.23391498
vt 0.31960599 0.23391498
vt 0.31960599 0.23391498
vt 0.31960599 0.23391498
vt 0.31960599 0.23391498
vt 0.31960599 0.23391498
vt 0.31960599 0.23391498
vt 0.31960599 0.23391498
vt 0.31960599 0.23391498
vt 0.31960599 0.23391498
vt 0.31960599 0.23391498
vt 0.31960599 0.23391498
vt 0.31960599 0.23391498
vt 0.31960599 0.23391498
vt 0.31960599 0.23391498
vt 0.31960599 0.23391498
vt 0.31960599 0.23391498
vt 0.31960599 0.23391498
vt 0.31960599 0.23391498
vt 0.31960599 0.23391498
vt 0.31960599 0.23391498
vt 0.31960599 0.23391498
vt 0.31960599 0.23391498
vt 0.31960599 0.23391498
vt 0.31960599 0.23391498
vt 0.31960599 0.23391498
vt 0.31960599 0.23391498
vt 0.31960599 0.23391498
vt 0.32013604 0.72338791
vt 0.32013604 0.72338791
vt 0.32013604 0.72338791
vt 0.32013604 0.72338791
vt 0.32013604 0.72338791
vt 0.32013604 0.72338791
vt 0.32013604 0.72338791
vt 0.32013604 0.72338791
vt 0.32013604 0.72338791
vt 0.32013604 0.72338791
vt 0.32013604 0.72338791
vt 0.32013604 0.72338791
vt 0.32013604 0.72338791
vt 0.32013604 0.72338791
vt 0.32013604 0.72338791
vt 0.32013604 0.72338791
vt 0.32013604 0.72338791
vt 0.32013604 0.72338791
vt 0.32013604 0.72338791
vt 0.32013604 0.72338791
vt 0.32013604 0.72338791
vt 0.32013604 0.72338791
vt 0.32013604 0.72338791
vt 0.32013604 0.72338791
vt 0.32013604 0.72338791
vt 0.32013604 0.72338791
vt 0.32013604 0.72338791
vt 0.32013604 0.72338791
vt 0.32013604 0.72338791
vt 0.32013604 0.72338791
vt 0.32013604 0.72338791
vt 0.32013604 0.72338791
vt 0.32013604 0.72338791
vt 0.32013604 0.72338791
vt 0.32013604 0.72338791
vt 0.32013604 0.72338791
vt 0.32013604 0.72338791
vt 0.43853048 2.5000000e-2
vt 0.43853048 0.97500000
vt 0.50000000 2.5000000e-2
vt 0.50000000 0.97500000
vt 0.56146952 2.5000000e-2
vt 0.56146952 0.97500000
vt 0.56146952 2.5000000e-2
vt 0.56146952 0.97500000
vt 0.90646951 2.5000000e-2
vt 0.90646951 0.97500000
vt 0.90646951 2.5000000e-2
vt 0.90646951 0.97500000
vt 0.90646951 2.5000000e-2
vt 0.90646951 2.5000000e-2
vt 0.90646951 2.5000000e-2
vt 0.90646951 2.5000000e-2
vt 0.90646951 0.97500000
vt 0.90646951 0.97500000
vt 0.96350946 2.5000000e-2
vt 0.96350946 2.5000000e-2
vt 0.96350946 2.5000000e-2
vt 0.96350946 2.5000000e-2
vt 0.96350946 0.97500000
vt 0.96350946 0.97500000
vn 0.70406259 0.71013792 -8.8696290e-17
vn 0.68007224 0.71013792 0.18222481
vn 0.60973609 0.71013792 0.35203130
vn 0.49784743 0.71013792 0.49784743
vn 0.35203130 0.71013792 0.60973609
vn 0.18222481 0.71013792 0.68007224
vn 2.0695801e-16 0.71013792 0.70406259
vn -0.18222481 0.71013792 0.68007224
vn -0.35203130 0.71013792 0.60973609
vn -0.49784743 0.71013792 0.49784743
vn -0.60973609 0.71013792 0.35203130
vn -0.68007224 0.71013792 0.18222481
vn -0.70406259 0.71013792 4.0406088e-16
vn -0.68007224 0.71013792 -0.18222481
vn -0.60973609 0.71013792 -0.35203130
vn -0.49784743 0.71013792 -0.49784743
vn -0.35203130 0.71013792 -0.60973609
vn -0.18222481 0.71013792 -0.68007224
vn -3.2521973e-16 0.71013792 -0.70406259
vn 0.18222481 0.71013792 -0.68007224
vn 0.35203130 0.71013792 -0.60973609
vn 0.49784743 0.71013792 -0.49784743
vn 0.60973609 0.71013792 -0.35203130
vn 0.68007224 0.71013792 -0.18222481
vn 0.70406259 -0.71013792 -8.8696290e-17
vn 0.68007224 -0.71013792 0.18222481
vn 0.60973609 -0.71013792 0.35203130
vn 0.49784743 -0.71013792 0.49784743
vn 0.35203130 -0.71013792 0.60973609
vn 0.18222481 -0.71013792 0.68007224
vn 2.0695801e-16 -0.71013792 0.70406259
vn -0.18222481 -0.71013792 0.68007224
vn -0.35203130 -0.71013792 0.60973609
vn -0.49784743 -0.71013792 0.49784743
vn -0.60973609 -0.71013792 0.35203130
vn -0.68007224 -0.71013792 0.18222481
vn -0.70406259 -0.71013792 4.0406088e-16
vn -0.68007224 -0.71013792 -0.18222481
vn -0.60973609 -0.71013792 -0.35203130
vn -0.49784743 -0.71013792 -0.49784743
vn -0.35203130 -0.71013792 -0.60973609
vn -0.18222481 -0.71013792 -0.68007224
vn -3.2521973e-16 -0.71013792 -0.70406259
vn 0.18222481 -0.71013792 -0.68007224
vn 0.35203130 -0.71013792 -0.60973609
vn 0.49784743 -0.71013792 -0.49784743
vn 0.60973609 -0.71013792 -0.35203130
vn 0.68007224 -0.71013792 -0.18222481
vn -0.70406259 0.71013792 1.1826172e-16
vn -0.68007224 0.71013792 -0.18222481
vn -0.60973609 0.71013792 -0.35203130
vn -0.49784743 0.71013792 -0.49784743
vn -0.35203130 0.71013792 -0.60973609
vn -0.18222481 0.71013792 -0.68007224
vn 5.9130860e-17 0.71013792 -0.70406259
vn 0.18222481 0.71013792 -0.68007224
vn 0.35203130 0.71013792 -0.60973609
vn 0.49784743 0.71013792 -0.49784743
vn 0.60973609 0.71013792 -0.35203130
vn 0.68007224 0.71013792 -0.18222481
vn 0.70406259 0.71013792 -2.0695801e-16
vn 0.68007224 0.71013792 0.18222481
vn 0.60973609 0.71013792 0.35203130
vn 0.49784743 0.71013792 0.49784743
vn 0.35203130 0.71013792 0.60973609
vn 0.18222481 0.71013792 0.68007224
vn 3.6464030e-16 0.71013792 0.70406259
vn -0.18222481 0.71013792 0.68007224
vn -0.35203130 0.71013792 0.60973609
vn -0.49784743 0.71013792 0.49784743
vn -0.60973609 0.71013792 0.35203130
vn -0.68007224 0.71013792 0.18222481
vn -0.70406259 -0.71013792 1.1826172e-16
vn -0.68007224 -0.71013792 -0.18222481
vn -0.60973609 -0.71013792 -0.35203130
vn -0.49784743 -0.71013792 -0.49784743
vn -0.35203130 -0.71013792 -0.60973609
vn -0.18222481 -0.71013792 -0.68007224
vn 5.9130860e-17 -0.71013792 -0.70406259
vn 0.18222481 -0.71013792 -0.68007224
vn 0.35203130 -0.71013792 -0.60973609
vn 0.49784743 -0.71013792 -0.49784743
vn 0.60973609 -0.71013792 -0.35203130
vn 0.68007224 -0.71013792 -0.18222481
vn 0.70406259 -0.71013792 -2.0695801e-16
vn 0.68007224 -0.71013792 0.18222481
vn 0.60973609 -0.71013792 0.35203130
vn 0.49784743 -0.71013792 0.49784743
vn 0.35203130 -0.71013792 0.60973609
vn 0.18222481 -0.71013792 0.68007224
vn 3.6464030e-16 -0.71013792 0.70406259
vn -0.18222481 -0.71013792 0.68007224
vn -0.35203130 -0.71013792 0.60973609
vn -0.49784743 -0.71013792 0.49784743
vn -0.60973609 -0.71013792 0.35203130
vn -0.68007224 -0.71013792 0.18222481
g S1TL3_S1TL3_auv
usemtl S1TL3_auv
s 1
f 1/175/1 25/174/25 48/178/48 24/179/24
f 1/157/1 49/87/49 50/37/50 2/115/2
f 2/173/2 26/172/26 25/174/25 1/175/1
f 2/138/2 50/93/50 51/52/51 3/104/3
f 3/8/3 27/6/27 26/15/26 2/17/2
f 3/157/3 51/87/51 52/37/52 4/115/4
f 4/8/4 28/6/28 27/15/27 3/17/3
f 4/103/4 52/55/52 53/74/53 5/147/5
f 5/8/5 29/6/29 28/15/28 4/17/4
f 5/111/5 53/58/53 54/95/54 6/137/6
f 6/11/6 30/10/30 29/13/29 5/14/5
f 6/149/6 54/76/54 55/48/55 7/127/7
f 7/8/7 31/6/31 30/15/30 6/17/6
f 7/154/7 55/85/55 56/31/56 8/101/8
f 8/8/8 32/6/32 31/15/31 7/17/7
f 8/146/8 56/96/56 57/36/57 9/108/9
f 9/8/9 33/6/33 32/15/32 8/17/8
f 9/148/9 57/75/57 58/54/58 10/131/10
f 10/8/10 34/6/34 33/15/33 9/17/9
f 10/162/10 58/90/58 59/24/59 11/121/11
f 11/11/11 35/10/35 34/13/34 10/14/10
f 11/132/11 59/29/59 60/80/60 12/155/12
f 12/8/12 36/6/36 35/15/35 11/17/11
f 12/164/12 60/67/60 61/28/61 13/133/13
f 13/175/13 37/174/37 36/176/36 12/177/12
f 13/106/13 61/35/61 62/66/62 14/162/14
f 14/173/14 38/172/38 37/174/37 13/175/13
f 14/141/14 62/92/62 63/45/63 15/122/15
f 15/5/15 39/4/39 38/19/38 14/20/14
f 15/130/15 63/27/63 64/71/64 16/169/16
f 16/8/16 40/7/40 39/16/39 15/17/15
f 16/161/16 64/65/64 65/53/65 17/119/17
f 17/5/17 41/3/41 40/18/40 16/20/16
f 17/113/17 65/59/65 66/86/66 18/135/18
f 18/11/18 42/9/42 41/12/41 17/14/17
f 18/149/18 66/76/66 67/48/67 19/127/19
f 19/2/19 43/1/43 42/21/42 18/22/18
f 19/153/19 67/84/67 68/41/68 20/110/20
f 20/8/20 44/7/44 43/16/43 19/17/19
f 20/139/20 68/89/68 69/57/69 21/100/21
f 21/8/21 45/7/45 44/16/44 20/17/20
f 21/97/21 69/42/69 70/74/70 22/168/22
f 22/2/22 46/1/46 45/21/45 21/22/21
f 22/98/22 70/44/70 71/68/71 23/166/23
f 23/8/23 47/6/47 46/15/46 22/17/22
f 23/106/23 71/35/71 72/66/72 24/162/24
f 24/8/24 48/7/48 47/16/47 23/17/23
f 24/114/24 72/25/72 49/83/49 1/171/1
f 25/109/25 73/26/73 96/77/96 48/170/48
f 26/156/26 74/81/74 73/34/73 25/105/25
f 27/160/27 75/64/75 74/32/74 26/120/26
f 28/116/28 76/38/76 75/62/75 27/158/27
f 29/143/29 77/69/77 76/51/76 28/123/28
f 30/140/30 78/94/78 77/56/77 29/107/29
f 31/97/31 79/42/79 78/74/78 30/168/30
f 32/124/32 80/47/80 79/79/79 31/151/31
f 33/159/33 81/78/81 80/33/80 32/126/32
f 34/101/34 82/31/82 81/85/81 33/154/33
f 35/99/35 83/46/83 82/70/82 34/167/34
f 36/145/36 84/88/84 83/40/83 35/125/35
f 37/134/37 85/30/85 84/63/84 36/150/36
f 38/142/38 86/72/86 85/39/85 37/117/37
f 39/101/39 87/31/87 86/85/86 38/154/38
f 40/152/40 88/73/88 87/49/87 39/102/39
f 41/99/41 89/46/89 88/70/88 40/167/40
f 42/165/42 90/82/90 89/23/89 41/129/41
f 43/144/43 91/77/91 90/50/90 42/128/42
f 44/154/44 92/85/92 91/31/91 43/101/43
f 45/118/45 93/60/93 92/91/92 44/136/44
f 46/156/46 94/81/94 93/34/93 45/105/45
f 47/163/47 95/61/95 94/43/94 46/112/46
f 48/106/48 96/35/96 95/66/95 47/162/47
f 49/188/49 73/186/73 74/192/74 50/194/50
f 50/188/50 74/187/74 75/193/75 51/194/51
f 51/188/51 75/186/75 76/192/76 52/194/52
f 52/188/52 76/186/76 77/192/77 53/194/53
f 53/188/53 77/186/77 78/192/78 54/194/54
f 54/188/54 78/187/78 79/193/79 55/194/55
f 55/188/55 79/186/79 80/192/80 56/194/56
f 56/188/56 80/186/80 81/192/81 57/194/57
f 57/188/57 81/187/81 82/193/82 58/194/58
f 58/188/58 82/185/82 83/191/83 59/194/59
f 59/189/59 83/184/83 84/190/84 60/195/60
f 60/188/60 84/186/84 85/192/85 61/194/61
f 61/188/61 85/185/85 86/191/86 62/194/62
f 62/188/62 86/186/86 87/192/87 63/194/63
f 63/188/63 87/186/87 88/192/88 64/194/64
f 64/188/64 88/186/88 89/192/89 65/194/65
f 65/188/65 89/185/89 90/191/90 66/194/66
f 66/183/66 90/182/90 91/192/91 67/194/67
f 67/188/67 91/185/91 92/191/92 68/194/68
f 68/188/68 92/185/92 93/191/93 69/194/69
f 69/188/69 93/186/93 94/192/94 70/194/70
f 70/188/70 94/185/94 95/191/95 71/194/71
f 71/188/71 95/185/95 96/191/96 72/194/72
f 72/181/72 96/180/96 73/192/73 49/194/49
