# Exported from Wings 3D 2.2.6.1
mtllib S1White4.mtl
o S1White4
#48 vertices, 24 faces
v 0.62500000 1.25000000 0.0000000e+0
v 0.60370364 1.25000000 0.16176190
v 0.54126588 1.25000000 0.31250000
v 0.44194174 1.25000000 0.44194174
v 0.31250000 1.25000000 0.54126588
v 0.16176190 1.25000000 0.60370364
v 3.8270212e-17 1.25000000 0.62500000
v -0.16176190 1.25000000 0.60370364
v -0.31250000 1.25000000 0.54126588
v -0.44194174 1.25000000 0.44194174
v -0.54126588 1.25000000 0.31250000
v -0.60370364 1.25000000 0.16176190
v -0.62500000 1.25000000 7.6540425e-17
v -0.60370364 1.25000000 -0.16176190
v -0.54126588 1.25000000 -0.31250000
v -0.44194174 1.25000000 -0.44194174
v -0.31250000 1.25000000 -0.54126588
v -0.16176190 1.25000000 -0.60370364
v -1.1481064e-16 1.25000000 -0.62500000
v 0.16176190 1.25000000 -0.60370364
v 0.31250000 1.25000000 -0.54126588
v 0.44194174 1.25000000 -0.44194174
v 0.54126588 1.25000000 -0.31250000
v 0.60370364 1.25000000 -0.16176190
v 0.62500000 -1.25000000 0.0000000e+0
v 0.60370364 -1.25000000 0.16176190
v 0.54126588 -1.25000000 0.31250000
v 0.44194174 -1.25000000 0.44194174
v 0.31250000 -1.25000000 0.54126588
v 0.16176190 -1.25000000 0.60370364
v 3.8270212e-17 -1.25000000 0.62500000
v -0.16176190 -1.25000000 0.60370364
v -0.31250000 -1.25000000 0.54126588
v -0.44194174 -1.25000000 0.44194174
v -0.54126588 -1.25000000 0.31250000
v -0.60370364 -1.25000000 0.16176190
v -0.62500000 -1.25000000 7.6540425e-17
v -0.60370364 -1.25000000 -0.16176190
v -0.54126588 -1.25000000 -0.31250000
v -0.44194174 -1.25000000 -0.44194174
v -0.31250000 -1.25000000 -0.54126588
v -0.16176190 -1.25000000 -0.60370364
v -1.1481064e-16 -1.25000000 -0.62500000
v 0.16176190 -1.25000000 -0.60370364
v 0.31250000 -1.25000000 -0.54126588
v 0.44194174 -1.25000000 -0.44194174
v 0.54126588 -1.25000000 -0.31250000
v 0.60370364 -1.25000000 -0.16176190
vt 0.0000000e+0 -1.1102230e-16
vt 0.0000000e+0 1.00000000
vt 6.0295239e-2 -1.1102230e-16
vt 6.0295239e-2 1.00000000
vt 6.0295239e-2 -1.1102230e-16
vt 6.0295239e-2 1.00000000
vt 0.12500000 -1.1102230e-16
vt 0.12500000 1.00000000
vt 0.12500000 -1.1102230e-16
vt 0.12500000 1.00000000
vt 0.18970476 -1.1102230e-16
vt 0.18970476 1.00000000
vt 0.18970476 -1.1102230e-16
vt 0.18970476 1.00000000
vt 0.25000000 -1.1102230e-16
vt 0.25000000 1.00000000
vt 0.25000000 -1.1102230e-16
vt 0.25000000 1.00000000
vt 0.75000000 0.0000000e+0
vt 0.75000000 1.6653345e-16
vt 0.75000000 1.00000000
vt 0.75000000 1.00000000
vt 0.81029524 0.0000000e+0
vt 0.81029524 8.3266727e-17
vt 0.81029524 1.00000000
vt 0.81029524 1.00000000
vt 0.87500000 8.3266727e-17
vt 0.87500000 0.0000000e+0
vt 0.87500000 1.00000000
vt 0.87500000 1.00000000
vt 0.93970476 0.0000000e+0
vt 0.93970476 8.3266727e-17
vt 0.93970476 1.00000000
vt 0.93970476 1.00000000
vt 1.00000000 0.0000000e+0
vt 1.00000000 1.00000000
vt 1.00000000 1.00000000
vn 1.00000000 0.0000000e+0 -1.2597785e-16
vn 0.96592583 0.0000000e+0 0.25881905
vn 0.86602540 0.0000000e+0 0.50000000
vn 0.70710678 0.0000000e+0 0.70710678
vn 0.50000000 0.0000000e+0 0.86602540
vn 0.25881905 0.0000000e+0 0.96592583
vn 2.9394831e-16 0.0000000e+0 1.00000000
vn -0.25881905 0.0000000e+0 0.96592583
vn -0.50000000 0.0000000e+0 0.86602540
vn -0.70710678 0.0000000e+0 0.70710678
vn -0.86602540 0.0000000e+0 0.50000000
vn -0.96592583 0.0000000e+0 0.25881905
vn -1.00000000 0.0000000e+0 5.7389909e-16
vn -0.96592583 0.0000000e+0 -0.25881905
vn -0.86602540 0.0000000e+0 -0.50000000
vn -0.70710678 0.0000000e+0 -0.70710678
vn -0.50000000 0.0000000e+0 -0.86602540
vn -0.25881905 0.0000000e+0 -0.96592583
vn -4.6191878e-16 0.0000000e+0 -1.00000000
vn 0.25881905 0.0000000e+0 -0.96592583
vn 0.50000000 0.0000000e+0 -0.86602540
vn 0.70710678 0.0000000e+0 -0.70710678
vn 0.86602540 0.0000000e+0 -0.50000000
vn 0.96592583 0.0000000e+0 -0.25881905
vn 1.00000000 0.0000000e+0 -1.2597785e-16
vn 0.96592583 0.0000000e+0 0.25881905
vn 0.86602540 0.0000000e+0 0.50000000
vn 0.70710678 0.0000000e+0 0.70710678
vn 0.50000000 0.0000000e+0 0.86602540
vn 0.25881905 0.0000000e+0 0.96592583
vn 2.9394831e-16 0.0000000e+0 1.00000000
vn -0.25881905 0.0000000e+0 0.96592583
vn -0.50000000 0.0000000e+0 0.86602540
vn -0.70710678 0.0000000e+0 0.70710678
vn -0.86602540 0.0000000e+0 0.50000000
vn -0.96592583 0.0000000e+0 0.25881905
vn -1.00000000 0.0000000e+0 5.7389909e-16
vn -0.96592583 0.0000000e+0 -0.25881905
vn -0.86602540 0.0000000e+0 -0.50000000
vn -0.70710678 0.0000000e+0 -0.70710678
vn -0.50000000 0.0000000e+0 -0.86602540
vn -0.25881905 0.0000000e+0 -0.96592583
vn -4.6191878e-16 0.0000000e+0 -1.00000000
vn 0.25881905 0.0000000e+0 -0.96592583
vn 0.50000000 0.0000000e+0 -0.86602540
vn 0.70710678 0.0000000e+0 -0.70710678
vn 0.86602540 0.0000000e+0 -0.50000000
vn 0.96592583 0.0000000e+0 -0.25881905
g S1White4_S1White4_auv
usemtl S1White4_auv
s 1
f 1/2/1 25/1/25 48/5/48 24/6/24
f 2/12/2 26/11/26 25/15/25 1/16/1
f 3/8/3 27/7/27 26/11/26 2/12/2
f 4/4/4 28/3/28 27/7/27 3/8/3
f 5/2/5 29/1/29 28/3/28 4/4/4
f 6/33/6 30/31/30 29/35/29 5/37/5
f 7/30/7 31/28/31 30/31/30 6/33/6
f 8/25/8 32/23/32 31/28/31 7/30/7
f 9/21/9 33/19/33 32/23/32 8/25/8
f 10/14/10 34/13/34 33/17/33 9/18/9
f 11/10/11 35/9/35 34/13/34 10/14/10
f 12/6/12 36/5/36 35/9/35 11/10/11
f 13/2/13 37/1/37 36/5/36 12/6/12
f 14/14/14 38/13/38 37/15/37 13/16/13
f 15/8/15 39/7/39 38/13/38 14/14/14
f 16/4/16 40/3/40 39/7/39 15/8/15
f 17/2/17 41/1/41 40/3/40 16/4/16
f 18/34/18 42/32/42 41/35/41 17/36/17
f 19/29/19 43/27/43 42/32/42 18/34/18
f 20/26/20 44/24/44 43/27/43 19/29/19
f 21/22/21 45/20/45 44/24/44 20/26/20
f 22/14/22 46/13/46 45/17/45 21/18/21
f 23/10/23 47/9/47 46/13/46 22/14/22
f 24/6/24 48/5/48 47/9/47 23/10/23
