# Exported from Wings 3D 2.2.6.1
mtllib S1TL4.mtl
o S1TL4_Pipelines
#64 vertices, 40 faces
v 0.50000000 -4.0000000e-2 0.45000000
v 0.48535534 -4.0000000e-2 0.48535534
v 0.45000000 -4.0000000e-2 0.50000000
v 0.41464466 -4.0000000e-2 0.48535534
v 0.40000000 -4.0000000e-2 0.45000000
v 0.41464466 -4.0000000e-2 0.41464466
v 0.45000000 -4.0000000e-2 0.40000000
v 0.48535534 -4.0000000e-2 0.41464466
v 0.50000000 -2.04000000 0.45000000
v 0.48535534 -2.04000000 0.48535534
v 0.45000000 -2.04000000 0.50000000
v 0.41464466 -2.04000000 0.48535534
v 0.40000000 -2.04000000 0.45000000
v 0.41464466 -2.04000000 0.41464466
v 0.45000000 -2.04000000 0.40000000
v 0.48535534 -2.04000000 0.41464466
v 0.50000000 -4.0000000e-2 -0.45000000
v 0.48535534 -4.0000000e-2 -0.41464466
v 0.45000000 -4.0000000e-2 -0.40000000
v 0.41464466 -4.0000000e-2 -0.41464466
v 0.40000000 -4.0000000e-2 -0.45000000
v 0.41464466 -4.0000000e-2 -0.48535534
v 0.45000000 -4.0000000e-2 -0.50000000
v 0.48535534 -4.0000000e-2 -0.48535534
v 0.50000000 -2.04000000 -0.45000000
v 0.48535534 -2.04000000 -0.41464466
v 0.45000000 -2.04000000 -0.40000000
v 0.41464466 -2.04000000 -0.41464466
v 0.40000000 -2.04000000 -0.45000000
v 0.41464466 -2.04000000 -0.48535534
v 0.45000000 -2.04000000 -0.50000000
v 0.48535534 -2.04000000 -0.48535534
v -0.40000000 -4.0000000e-2 -0.45000000
v -0.41464466 -4.0000000e-2 -0.41464466
v -0.45000000 -4.0000000e-2 -0.40000000
v -0.48535534 -4.0000000e-2 -0.41464466
v -0.50000000 -4.0000000e-2 -0.45000000
v -0.48535534 -4.0000000e-2 -0.48535534
v -0.45000000 -4.0000000e-2 -0.50000000
v -0.41464466 -4.0000000e-2 -0.48535534
v -0.40000000 -2.04000000 -0.45000000
v -0.41464466 -2.04000000 -0.41464466
v -0.45000000 -2.04000000 -0.40000000
v -0.48535534 -2.04000000 -0.41464466
v -0.50000000 -2.04000000 -0.45000000
v -0.48535534 -2.04000000 -0.48535534
v -0.45000000 -2.04000000 -0.50000000
v -0.41464466 -2.04000000 -0.48535534
v -0.40000000 -4.0000000e-2 0.45000000
v -0.41464466 -4.0000000e-2 0.48535534
v -0.45000000 -4.0000000e-2 0.50000000
v -0.48535534 -4.0000000e-2 0.48535534
v -0.50000000 -4.0000000e-2 0.45000000
v -0.48535534 -4.0000000e-2 0.41464466
v -0.45000000 -4.0000000e-2 0.40000000
v -0.41464466 -4.0000000e-2 0.41464466
v -0.40000000 -2.04000000 0.45000000
v -0.41464466 -2.04000000 0.48535534
v -0.45000000 -2.04000000 0.50000000
v -0.48535534 -2.04000000 0.48535534
v -0.50000000 -2.04000000 0.45000000
v -0.48535534 -2.04000000 0.41464466
v -0.45000000 -2.04000000 0.40000000
v -0.41464466 -2.04000000 0.41464466
vt 7.8805922e-3 0.92711941
vt 2.4130592e-2 0.94336941
vt 2.4130592e-2 0.94336941
vt 4.0380592e-2 0.95961941
vt 4.0380592e-2 0.95961941
vt 5.6630592e-2 0.97586941
vt 5.6630592e-2 0.97586941
vt 7.2880592e-2 0.99211941
vt 0.52250000 0.75000000
vt 0.52250000 0.75000000
vt 0.52250000 0.75000000
vt 0.58913321 0.58913321
vt 0.58913321 0.58913321
vt 0.58913321 0.91086679
vt 0.58913321 0.91086679
vt 0.58913321 0.91086679
vt 0.75000000 0.97750000
vt 0.75000000 0.52250000
vt 0.75000000 0.52250000
vt 0.75000000 0.97750000
vt 0.75000000 0.97750000
vt 0.91086679 0.58913321
vt 0.91086679 0.58913321
vt 0.91086679 0.58913321
vt 0.91086679 0.91086679
vt 0.91086679 0.91086679
vt 0.91086679 0.91086679
vt 0.92711941 7.8805922e-3
vt 0.94336941 2.4130592e-2
vt 0.94336941 2.4130592e-2
vt 0.94336941 2.4130592e-2
vt 0.95961941 4.0380592e-2
vt 0.95961941 4.0380592e-2
vt 0.97586941 5.6630592e-2
vt 0.97586941 5.6630592e-2
vt 0.97750000 0.75000000
vt 0.99211941 7.2880592e-2
vn 0.87946522 0.47596315 0.0000000e+0
vn 0.62187582 0.47596315 0.62187582
vn 0.0000000e+0 0.47596315 0.87946522
vn -0.62187582 0.47596315 0.62187582
vn -0.87946522 0.47596315 0.0000000e+0
vn -0.62187582 0.47596315 -0.62187582
vn 0.0000000e+0 0.47596315 -0.87946522
vn 0.62187582 0.47596315 -0.62187582
vn 0.87946522 -0.47596315 0.0000000e+0
vn 0.62187582 -0.47596315 0.62187582
vn 0.0000000e+0 -0.47596315 0.87946522
vn -0.62187582 -0.47596315 0.62187582
vn -0.87946522 -0.47596315 0.0000000e+0
vn -0.62187582 -0.47596315 -0.62187582
vn 0.0000000e+0 -0.47596315 -0.87946522
vn 0.62187582 -0.47596315 -0.62187582
vn 0.87946522 0.47596315 0.0000000e+0
vn 0.62187582 0.47596315 0.62187582
vn 0.0000000e+0 0.47596315 0.87946522
vn -0.62187582 0.47596315 0.62187582
vn -0.87946522 0.47596315 0.0000000e+0
vn -0.62187582 0.47596315 -0.62187582
vn 0.0000000e+0 0.47596315 -0.87946522
vn 0.62187582 0.47596315 -0.62187582
vn 0.87946522 -0.47596315 0.0000000e+0
vn 0.62187582 -0.47596315 0.62187582
vn 0.0000000e+0 -0.47596315 0.87946522
vn -0.62187582 -0.47596315 0.62187582
vn -0.87946522 -0.47596315 0.0000000e+0
vn -0.62187582 -0.47596315 -0.62187582
vn 0.0000000e+0 -0.47596315 -0.87946522
vn 0.62187582 -0.47596315 -0.62187582
vn 0.87946522 0.47596315 0.0000000e+0
vn 0.62187582 0.47596315 0.62187582
vn 0.0000000e+0 0.47596315 0.87946522
vn -0.62187582 0.47596315 0.62187582
vn -0.87946522 0.47596315 0.0000000e+0
vn -0.62187582 0.47596315 -0.62187582
vn 0.0000000e+0 0.47596315 -0.87946522
vn 0.62187582 0.47596315 -0.62187582
vn 0.87946522 -0.47596315 0.0000000e+0
vn 0.62187582 -0.47596315 0.62187582
vn 0.0000000e+0 -0.47596315 0.87946522
vn -0.62187582 -0.47596315 0.62187582
vn -0.87946522 -0.47596315 0.0000000e+0
vn -0.62187582 -0.47596315 -0.62187582
vn 0.0000000e+0 -0.47596315 -0.87946522
vn 0.62187582 -0.47596315 -0.62187582
vn 0.87946522 0.47596315 0.0000000e+0
vn 0.62187582 0.47596315 0.62187582
vn 0.0000000e+0 0.47596315 0.87946522
vn -0.62187582 0.47596315 0.62187582
vn -0.87946522 0.47596315 0.0000000e+0
vn -0.62187582 0.47596315 -0.62187582
vn 0.0000000e+0 0.47596315 -0.87946522
vn 0.62187582 0.47596315 -0.62187582
vn 0.87946522 -0.47596315 0.0000000e+0
vn 0.62187582 -0.47596315 0.62187582
vn 0.0000000e+0 -0.47596315 0.87946522
vn -0.62187582 -0.47596315 0.62187582
vn -0.87946522 -0.47596315 0.0000000e+0
vn -0.62187582 -0.47596315 -0.62187582
vn 0.0000000e+0 -0.47596315 -0.87946522
vn 0.62187582 -0.47596315 -0.62187582
g S1TL4_Pipelines_S1TL4_Pipelines_auv
usemtl S1TL4_Pipelines_auv
s 1
f 1/26/1 8/20/8 7/15/7 6/10/6 5/12/5 4/19/4 3/24/3 2/36/2
f 1/4/1 9/33/9 16/35/16 8/6/8
f 2/2/2 10/30/10 9/33/9 1/4/1
f 3/4/3 11/33/11 10/35/10 2/6/2
f 4/3/4 12/31/12 11/33/11 3/4/3
f 5/6/5 13/35/13 12/37/12 4/8/4
f 6/4/6 14/33/14 13/35/13 5/6/5
f 7/3/7 15/31/15 14/33/14 6/4/6
f 8/1/8 16/28/16 15/31/15 7/3/7
f 10/18/10 11/23/11 12/36/12 13/25/13 14/17/14 15/14/15 16/9/16 9/13/9
f 17/27/17 24/21/24 23/16/23 22/11/22 21/13/21 20/18/20 19/23/19 18/36/18
f 17/4/17 25/33/25 32/35/32 24/6/24
f 18/3/18 26/31/26 25/33/25 17/4/17
f 19/4/19 27/33/27 26/35/26 18/6/18
f 20/3/20 28/31/28 27/33/27 19/4/19
f 21/4/21 29/33/29 28/35/28 20/6/20
f 22/3/22 30/31/30 29/33/29 21/4/21
f 23/4/23 31/33/31 30/35/30 22/6/22
f 24/3/24 32/31/32 31/33/31 23/4/23
f 26/19/26 27/22/27 28/36/28 29/26/29 30/20/30 31/15/31 32/10/32 25/12/25
f 33/26/33 40/20/40 39/15/39 38/10/38 37/12/37 36/19/36 35/24/35 34/36/34
f 33/4/33 41/33/41 48/35/48 40/6/40
f 34/2/34 42/30/42 41/33/41 33/4/33
f 35/5/35 43/33/43 42/35/42 34/7/34
f 36/3/36 44/30/44 43/33/43 35/5/35
f 37/4/37 45/33/45 44/35/44 36/6/36
f 38/3/38 46/31/46 45/33/45 37/4/37
f 39/5/39 47/32/47 46/35/46 38/7/38
f 40/3/40 48/29/48 47/32/47 39/5/39
f 42/18/42 43/23/43 44/36/44 45/27/45 46/21/46 47/16/47 48/10/48 41/13/41
f 49/26/49 56/20/56 55/15/55 54/10/54 53/12/53 52/19/52 51/22/51 50/36/50
f 49/4/49 57/33/57 64/35/64 56/6/56
f 50/3/50 58/31/58 57/33/57 49/4/49
f 51/4/51 59/32/59 58/35/58 50/6/50
f 52/3/52 60/29/60 59/32/59 51/4/51
f 53/4/53 61/33/61 60/35/60 52/6/52
f 54/3/54 62/31/62 61/33/61 53/4/53
f 55/4/55 63/32/63 62/34/62 54/7/54
f 56/3/56 64/29/64 63/32/63 55/4/55
f 58/19/58 59/22/59 60/36/60 61/26/61 62/20/62 63/15/63 64/10/64 57/12/57
o S1TL4
#96 vertices, 96 faces
v 0.62500000 2.50000000 0.0000000e+0
v 0.60370364 2.50000000 0.16176190
v 0.54126588 2.50000000 0.31250000
v 0.44194174 2.50000000 0.44194174
v 0.31250000 2.50000000 0.54126588
v 0.16176190 2.50000000 0.60370364
v 3.8270212e-17 2.50000000 0.62500000
v -0.16176190 2.50000000 0.60370364
v -0.31250000 2.50000000 0.54126588
v -0.44194174 2.50000000 0.44194174
v -0.54126588 2.50000000 0.31250000
v -0.60370364 2.50000000 0.16176190
v -0.62500000 2.50000000 7.6540425e-17
v -0.60370364 2.50000000 -0.16176190
v -0.54126588 2.50000000 -0.31250000
v -0.44194174 2.50000000 -0.44194174
v -0.31250000 2.50000000 -0.54126588
v -0.16176190 2.50000000 -0.60370364
v -1.1481064e-16 2.50000000 -0.62500000
v 0.16176190 2.50000000 -0.60370364
v 0.31250000 2.50000000 -0.54126588
v 0.44194174 2.50000000 -0.44194174
v 0.54126588 2.50000000 -0.31250000
v 0.60370364 2.50000000 -0.16176190
v 0.62500000 -2.50000000 0.0000000e+0
v 0.60370364 -2.50000000 0.16176190
v 0.54126588 -2.50000000 0.31250000
v 0.44194174 -2.50000000 0.44194174
v 0.31250000 -2.50000000 0.54126588
v 0.16176190 -2.50000000 0.60370364
v 3.8270212e-17 -2.50000000 0.62500000
v -0.16176190 -2.50000000 0.60370364
v -0.31250000 -2.50000000 0.54126588
v -0.44194174 -2.50000000 0.44194174
v -0.54126588 -2.50000000 0.31250000
v -0.60370364 -2.50000000 0.16176190
v -0.62500000 -2.50000000 7.6540425e-17
v -0.60370364 -2.50000000 -0.16176190
v -0.54126588 -2.50000000 -0.31250000
v -0.44194174 -2.50000000 -0.44194174
v -0.31250000 -2.50000000 -0.54126588
v -0.16176190 -2.50000000 -0.60370364
v -1.1481064e-16 -2.50000000 -0.62500000
v 0.16176190 -2.50000000 -0.60370364
v 0.31250000 -2.50000000 -0.54126588
v 0.44194174 -2.50000000 -0.44194174
v 0.54126588 -2.50000000 -0.31250000
v 0.60370364 -2.50000000 -0.16176190
v 0.57500000 2.50000000 0.0000000e+0
v 0.55540735 2.50000000 0.14882095
v 0.49796461 2.50000000 0.28750000
v 0.40658640 2.50000000 0.40658640
v 0.28750000 2.50000000 0.49796461
v 0.14882095 2.50000000 0.55540735
v 3.5208595e-17 2.50000000 0.57500000
v -0.14882095 2.50000000 0.55540735
v -0.28750000 2.50000000 0.49796461
v -0.40658640 2.50000000 0.40658640
v -0.49796461 2.50000000 0.28750000
v -0.55540735 2.50000000 0.14882095
v -0.57500000 2.50000000 7.0417191e-17
v -0.55540735 2.50000000 -0.14882095
v -0.49796461 2.50000000 -0.28750000
v -0.40658640 2.50000000 -0.40658640
v -0.28750000 2.50000000 -0.49796461
v -0.14882095 2.50000000 -0.55540735
v -1.0562579e-16 2.50000000 -0.57500000
v 0.14882095 2.50000000 -0.55540735
v 0.28750000 2.50000000 -0.49796461
v 0.40658640 2.50000000 -0.40658640
v 0.49796461 2.50000000 -0.28750000
v 0.55540735 2.50000000 -0.14882095
v 0.57500000 -2.50000000 0.0000000e+0
v 0.55540735 -2.50000000 0.14882095
v 0.49796461 -2.50000000 0.28750000
v 0.40658640 -2.50000000 0.40658640
v 0.28750000 -2.50000000 0.49796461
v 0.14882095 -2.50000000 0.55540735
v 3.5208595e-17 -2.50000000 0.57500000
v -0.14882095 -2.50000000 0.55540735
v -0.28750000 -2.50000000 0.49796461
v -0.40658640 -2.50000000 0.40658640
v -0.49796461 -2.50000000 0.28750000
v -0.55540735 -2.50000000 0.14882095
v -0.57500000 -2.50000000 7.0417191e-17
v -0.55540735 -2.50000000 -0.14882095
v -0.49796461 -2.50000000 -0.28750000
v -0.40658640 -2.50000000 -0.40658640
v -0.28750000 -2.50000000 -0.49796461
v -0.14882095 -2.50000000 -0.55540735
v -1.0562579e-16 -2.50000000 -0.57500000
v 0.14882095 -2.50000000 -0.55540735
v 0.28750000 -2.50000000 -0.49796461
v 0.40658640 -2.50000000 -0.40658640
v 0.49796461 -2.50000000 -0.28750000
v 0.55540735 -2.50000000 -0.14882095
vt 1.0000000e-2 1.4273443e-2
vt 1.0000000e-2 1.4273443e-2
vt 1.0000000e-2 1.4273443e-2
vt 1.0000000e-2 0.98572656
vt 4.1700019e-2 1.4273443e-2
vt 4.1700019e-2 1.4273443e-2
vt 4.1700019e-2 0.98572656
vt 4.1700019e-2 1.4273443e-2
vt 4.1700019e-2 0.98572656
vt 4.1700019e-2 1.4273443e-2
vt 4.1700019e-2 0.98572656
vt 4.1700019e-2 1.4273443e-2
vt 4.1700019e-2 0.98572656
vt 4.1700019e-2 1.4273443e-2
vt 4.1700019e-2 0.98572656
vt 0.16727616 0.77986205
vt 0.16727616 0.77986205
vt 0.16727616 0.77986205
vt 0.16727616 0.77986205
vt 0.16727616 0.77986205
vt 0.16727616 0.77986205
vt 0.16727616 0.77986205
vt 0.16727616 0.77986205
vt 0.16727616 0.77986205
vt 0.16727616 0.77986205
vt 0.16727616 0.77986205
vt 0.16727616 0.77986205
vt 0.16727616 0.77986205
vt 0.16727616 0.77986205
vt 0.16727616 0.77986205
vt 0.16727616 0.77986205
vt 0.16727616 0.77986205
vt 0.16727616 0.77986205
vt 0.16727616 0.77986205
vt 0.16727616 0.77986205
vt 0.16727616 0.77986205
vt 0.16727616 0.77986205
vt 0.16727616 0.77986205
vt 0.16727616 0.77986205
vt 0.16727616 0.77986205
vt 0.16727616 0.77986205
vt 0.16727616 0.77986205
vt 0.16727616 0.77986205
vt 0.16727616 0.77986205
vt 0.16727616 0.77986205
vt 0.16727616 0.77986205
vt 0.16727616 0.77986205
vt 0.16727616 0.77986205
vt 0.16790779 0.19658204
vt 0.16790779 0.19658204
vt 0.16790779 0.19658204
vt 0.16790779 0.19658204
vt 0.16790779 0.19658204
vt 0.16790779 0.19658204
vt 0.16790779 0.19658204
vt 0.16790779 0.19658204
vt 0.16790779 0.19658204
vt 0.16790779 0.19658204
vt 0.16790779 0.19658204
vt 0.16790779 0.19658204
vt 0.16790779 0.19658204
vt 0.16790779 0.19658204
vt 0.16790779 0.19658204
vt 0.16790779 0.19658204
vt 0.16790779 0.19658204
vt 0.16790779 0.19658204
vt 0.16790779 0.19658204
vt 0.16790779 0.19658204
vt 0.16790779 0.19658204
vt 0.16790779 0.19658204
vt 0.16790779 0.19658204
vt 0.16790779 0.19658204
vt 0.16790779 0.19658204
vt 0.16790779 0.19658204
vt 0.16790779 0.19658204
vt 0.16790779 0.19658204
vt 0.16790779 0.19658204
vt 0.16790779 0.19658204
vt 0.16790779 0.19658204
vt 0.16790779 0.19658204
vt 0.35987702 0.80543064
vt 0.35987702 0.80543064
vt 0.35987702 0.80543064
vt 0.35987702 0.80543064
vt 0.35987702 0.80543064
vt 0.35987702 0.80543064
vt 0.35987702 0.80543064
vt 0.35987702 0.80543064
vt 0.35987702 0.80543064
vt 0.35987702 0.80543064
vt 0.35987702 0.80543064
vt 0.35987702 0.80543064
vt 0.35987702 0.80543064
vt 0.35987702 0.80543064
vt 0.35987702 0.80543064
vt 0.35987702 0.80543064
vt 0.35987702 0.80543064
vt 0.35987702 0.80543064
vt 0.35987702 0.80543064
vt 0.35987702 0.80543064
vt 0.35987702 0.80543064
vt 0.35987702 0.80543064
vt 0.35987702 0.80543064
vt 0.35987702 0.80543064
vt 0.35987702 0.80543064
vt 0.35987702 0.80543064
vt 0.35987702 0.80543064
vt 0.35987702 0.80543064
vt 0.35987702 0.80543064
vt 0.35987702 0.80543064
vt 0.35987702 0.80543064
vt 0.35987702 0.80543064
vt 0.35987702 0.80543064
vt 0.36056358 0.17143064
vt 0.36056358 0.17143064
vt 0.36056358 0.17143064
vt 0.36056358 0.17143064
vt 0.36056358 0.17143064
vt 0.36056358 0.17143064
vt 0.36056358 0.17143064
vt 0.36056358 0.17143064
vt 0.36056358 0.17143064
vt 0.36056358 0.17143064
vt 0.36056358 0.17143064
vt 0.36056358 0.17143064
vt 0.36056358 0.17143064
vt 0.36056358 0.17143064
vt 0.36056358 0.17143064
vt 0.36056358 0.17143064
vt 0.36056358 0.17143064
vt 0.36056358 0.17143064
vt 0.36056358 0.17143064
vt 0.36056358 0.17143064
vt 0.36056358 0.17143064
vt 0.36056358 0.17143064
vt 0.36056358 0.17143064
vt 0.36056358 0.17143064
vt 0.36056358 0.17143064
vt 0.36056358 0.17143064
vt 0.36056358 0.17143064
vt 0.36056358 0.17143064
vt 0.36056358 0.17143064
vt 0.36056358 0.17143064
vt 0.36056358 0.17143064
vt 0.36056358 0.17143064
vt 0.36056358 0.17143064
vt 0.43928418 1.4273443e-2
vt 0.43928418 0.98572656
vt 0.43928418 1.4273443e-2
vt 0.43928418 0.98572656
vt 0.46857118 1.4273443e-2
vt 0.46857118 0.98572656
vt 0.46857118 1.4273443e-2
vt 0.46857118 0.98572656
vt 0.50000000 1.4273443e-2
vt 0.50000000 0.98572656
vt 0.53142882 1.4273443e-2
vt 0.53142882 0.98572656
vt 0.53142882 1.4273443e-2
vt 0.53142882 0.98572656
vt 0.56071582 1.4273443e-2
vt 0.56071582 0.98572656
vt 0.96083598 1.4273443e-2
vt 0.96083598 0.98572656
vt 0.96083598 1.4273443e-2
vt 0.96083598 1.4273443e-2
vt 0.96083598 1.4273443e-2
vt 0.96083598 0.98572656
vt 0.99000000 1.4273443e-2
vt 0.99000000 1.4273443e-2
vt 0.99000000 1.4273443e-2
vt 0.99000000 0.98572656
vn 0.70406259 0.71013792 -8.8696290e-17
vn 0.68007224 0.71013792 0.18222481
vn 0.60973609 0.71013792 0.35203130
vn 0.49784743 0.71013792 0.49784743
vn 0.35203130 0.71013792 0.60973609
vn 0.18222481 0.71013792 0.68007224
vn 2.0695801e-16 0.71013792 0.70406259
vn -0.18222481 0.71013792 0.68007224
vn -0.35203130 0.71013792 0.60973609
vn -0.49784743 0.71013792 0.49784743
vn -0.60973609 0.71013792 0.35203130
vn -0.68007224 0.71013792 0.18222481
vn -0.70406259 0.71013792 4.0406088e-16
vn -0.68007224 0.71013792 -0.18222481
vn -0.60973609 0.71013792 -0.35203130
vn -0.49784743 0.71013792 -0.49784743
vn -0.35203130 0.71013792 -0.60973609
vn -0.18222481 0.71013792 -0.68007224
vn -3.2521973e-16 0.71013792 -0.70406259
vn 0.18222481 0.71013792 -0.68007224
vn 0.35203130 0.71013792 -0.60973609
vn 0.49784743 0.71013792 -0.49784743
vn 0.60973609 0.71013792 -0.35203130
vn 0.68007224 0.71013792 -0.18222481
vn 0.70406259 -0.71013792 -8.8696290e-17
vn 0.68007224 -0.71013792 0.18222481
vn 0.60973609 -0.71013792 0.35203130
vn 0.49784743 -0.71013792 0.49784743
vn 0.35203130 -0.71013792 0.60973609
vn 0.18222481 -0.71013792 0.68007224
vn 2.0695801e-16 -0.71013792 0.70406259
vn -0.18222481 -0.71013792 0.68007224
vn -0.35203130 -0.71013792 0.60973609
vn -0.49784743 -0.71013792 0.49784743
vn -0.60973609 -0.71013792 0.35203130
vn -0.68007224 -0.71013792 0.18222481
vn -0.70406259 -0.71013792 4.0406088e-16
vn -0.68007224 -0.71013792 -0.18222481
vn -0.60973609 -0.71013792 -0.35203130
vn -0.49784743 -0.71013792 -0.49784743
vn -0.35203130 -0.71013792 -0.60973609
vn -0.18222481 -0.71013792 -0.68007224
vn -3.2521973e-16 -0.71013792 -0.70406259
vn 0.18222481 -0.71013792 -0.68007224
vn 0.35203130 -0.71013792 -0.60973609
vn 0.49784743 -0.71013792 -0.49784743
vn 0.60973609 -0.71013792 -0.35203130
vn 0.68007224 -0.71013792 -0.18222481
vn -0.70406259 0.71013792 1.1826172e-16
vn -0.68007224 0.71013792 -0.18222481
vn -0.60973609 0.71013792 -0.35203130
vn -0.49784743 0.71013792 -0.49784743
vn -0.35203130 0.71013792 -0.60973609
vn -0.18222481 0.71013792 -0.68007224
vn 5.9130860e-17 0.71013792 -0.70406259
vn 0.18222481 0.71013792 -0.68007224
vn 0.35203130 0.71013792 -0.60973609
vn 0.49784743 0.71013792 -0.49784743
vn 0.60973609 0.71013792 -0.35203130
vn 0.68007224 0.71013792 -0.18222481
vn 0.70406259 0.71013792 -2.0695801e-16
vn 0.68007224 0.71013792 0.18222481
vn 0.60973609 0.71013792 0.35203130
vn 0.49784743 0.71013792 0.49784743
vn 0.35203130 0.71013792 0.60973609
vn 0.18222481 0.71013792 0.68007224
vn 3.6464030e-16 0.71013792 0.70406259
vn -0.18222481 0.71013792 0.68007224
vn -0.35203130 0.71013792 0.60973609
vn -0.49784743 0.71013792 0.49784743
vn -0.60973609 0.71013792 0.35203130
vn -0.68007224 0.71013792 0.18222481
vn -0.70406259 -0.71013792 1.1826172e-16
vn -0.68007224 -0.71013792 -0.18222481
vn -0.60973609 -0.71013792 -0.35203130
vn -0.49784743 -0.71013792 -0.49784743
vn -0.35203130 -0.71013792 -0.60973609
vn -0.18222481 -0.71013792 -0.68007224
vn 5.9130860e-17 -0.71013792 -0.70406259
vn 0.18222481 -0.71013792 -0.68007224
vn 0.35203130 -0.71013792 -0.60973609
vn 0.49784743 -0.71013792 -0.49784743
vn 0.60973609 -0.71013792 -0.35203130
vn 0.68007224 -0.71013792 -0.18222481
vn 0.70406259 -0.71013792 -2.0695801e-16
vn 0.68007224 -0.71013792 0.18222481
vn 0.60973609 -0.71013792 0.35203130
vn 0.49784743 -0.71013792 0.49784743
vn 0.35203130 -0.71013792 0.60973609
vn 0.18222481 -0.71013792 0.68007224
vn 3.6464030e-16 -0.71013792 0.70406259
vn -0.18222481 -0.71013792 0.68007224
vn -0.35203130 -0.71013792 0.60973609
vn -0.49784743 -0.71013792 0.49784743
vn -0.60973609 -0.71013792 0.35203130
vn -0.68007224 -0.71013792 0.18222481
g S1TL4_Tube1_auv
usemtl Tube1_auv
s 1
f 65/193/65 89/192/89 112/196/112 88/197/88
f 65/162/65 113/99/113 114/73/114 66/130/66
f 66/189/66 90/188/90 89/192/89 65/193/65
f 66/178/66 114/92/114 115/65/115 67/142/67
f 67/185/67 91/184/91 90/188/90 66/189/66
f 67/166/67 115/98/115 116/77/116 68/131/68
f 68/41/68 92/39/92 91/51/91 67/52/67
f 68/143/68 116/58/116 117/96/117 69/176/69
f 69/41/69 93/39/93 92/42/92 68/44/68
f 69/135/69 117/70/117 118/110/118 70/158/70
f 70/41/70 94/39/94 93/42/93 69/44/69
f 70/151/70 118/113/118 119/82/119 71/124/71
f 71/41/71 95/39/95 94/47/94 70/48/70
f 71/153/71 119/112/119 120/83/120 72/123/72
f 72/41/72 96/39/96 95/42/95 71/44/71
f 72/160/72 120/101/120 121/72/121 73/137/73
f 73/41/73 97/39/97 96/42/96 72/44/72
f 73/178/73 121/92/121 122/65/122 74/142/74
f 74/41/74 98/39/98 97/51/97 73/52/73
f 74/168/74 122/106/122 123/67/123 75/127/75
f 75/41/75 99/39/99 98/42/98 74/44/74
f 75/143/75 123/58/123 124/96/124 76/176/76
f 76/195/76 100/194/100 99/198/99 75/199/75
f 76/160/76 124/101/124 125/72/125 77/137/77
f 77/193/77 101/192/101 100/194/100 76/195/76
f 77/150/77 125/57/125 126/86/126 78/182/78
f 78/191/78 102/190/102 101/192/101 77/193/77
f 78/178/78 126/92/126 127/65/127 79/142/79
f 79/187/79 103/186/103 102/190/102 78/191/78
f 79/119/79 127/80/127 128/115/128 80/155/80
f 80/41/80 104/40/104 103/43/103 79/44/79
f 80/160/80 128/101/128 129/72/129 81/137/81
f 81/41/81 105/38/105 104/49/104 80/50/80
f 81/128/81 129/69/129 130/109/130 82/171/82
f 82/41/82 106/38/106 105/45/105 81/46/81
f 82/173/82 130/94/130 131/61/131 83/144/83
f 83/41/83 107/40/107 106/43/106 82/44/82
f 83/175/83 131/93/131 132/63/132 84/145/84
f 84/41/84 108/40/108 107/43/107 83/44/83
f 84/154/84 132/114/132 133/85/133 85/118/85
f 85/41/85 109/40/109 108/43/108 84/44/84
f 85/147/85 133/53/133 134/90/134 86/183/86
f 86/41/86 110/40/110 109/43/109 85/44/85
f 86/126/86 134/76/134 135/107/135 87/164/87
f 87/41/87 111/39/111 110/42/110 86/44/86
f 87/140/87 135/62/135 136/95/136 88/174/88
f 88/197/88 112/196/112 111/198/111 87/199/87
f 88/134/88 136/68/136 113/108/113 65/165/65
f 89/148/89 137/54/137 160/87/160 112/179/112
f 90/161/90 138/99/138 137/73/137 89/130/89
f 91/181/91 139/89/139 138/56/138 90/146/90
f 92/134/92 140/68/140 139/108/139 91/165/91
f 93/177/93 141/91/141 140/64/140 92/141/92
f 94/163/94 142/105/142 141/75/141 93/125/93
f 95/121/95 143/79/143 142/117/142 94/157/94
f 96/120/96 144/84/144 143/116/143 95/156/95
f 97/159/97 145/100/145 144/74/144 96/136/96
f 98/138/98 146/59/146 145/96/145 97/176/97
f 99/129/99 147/71/147 146/104/146 98/170/98
f 100/180/100 148/88/148 147/55/147 99/149/99
f 101/134/101 149/68/149 148/108/148 100/165/100
f 102/161/102 150/99/150 149/73/149 101/130/101
f 103/139/103 151/60/151 150/97/150 102/172/102
f 104/167/104 152/102/152 151/78/151 103/132/103
f 105/147/105 153/53/153 152/90/152 104/183/104
f 106/159/106 154/100/154 153/74/153 105/136/105
f 107/180/107 155/88/155 154/55/154 106/149/106
f 108/161/108 156/99/156 155/73/155 107/130/107
f 109/133/109 157/66/157 156/103/156 108/169/108
f 110/161/110 158/99/158 157/73/157 109/130/109
f 111/152/111 159/111/159 158/81/158 110/122/110
f 112/140/112 160/62/160 159/95/159 111/174/111
f 113/205/113 137/203/137 138/207/138 114/209/114
f 114/205/114 138/204/138 139/208/139 115/209/115
f 115/205/115 139/203/139 140/207/140 116/209/116
f 116/205/116 140/203/140 141/207/141 117/209/117
f 117/205/117 141/203/141 142/207/142 118/209/118
f 118/205/118 142/204/142 143/208/143 119/209/119
f 119/205/119 143/203/143 144/207/144 120/209/120
f 120/205/120 144/203/144 145/207/145 121/209/121
f 121/205/121 145/204/145 146/208/146 122/209/122
f 122/205/122 146/203/146 147/207/147 123/209/123
f 123/205/123 147/202/147 148/206/148 124/209/124
f 124/205/124 148/203/148 149/207/149 125/209/125
f 125/205/125 149/203/149 150/207/150 126/209/126
f 126/205/126 150/203/150 151/207/151 127/209/127
f 127/205/127 151/203/151 152/207/152 128/209/128
f 128/205/128 152/203/152 153/207/153 129/209/129
f 129/205/129 153/203/153 154/207/154 130/209/130
f 130/201/130 154/200/154 155/207/155 131/209/131
f 131/205/131 155/203/155 156/207/156 132/209/132
f 132/205/132 156/203/156 157/207/157 133/209/133
f 133/205/133 157/203/157 158/207/158 134/209/134
f 134/205/134 158/203/158 159/207/159 135/209/135
f 135/205/135 159/203/159 160/207/160 136/209/136
f 136/205/136 160/203/160 137/207/137 113/209/113
